<svg xmlns="http://www.w3.org/2000/svg" 
     width="64" height="32" viewBox="0 0 100 100" preserveAspectRatio="xMinYMin">
  <defs>
    <clipPath id="stencil">
      <circle cx="50" cy="50" r="50"/>
    </clipPath>
  </defs>
  <g stroke="black" fill="white">
    <g transform="translate(0,0)" clip-path="url(#stencil)">
      <circle cx="50" cy="50" r="50" stroke="none" fill="red"/>
      <g transform="rotate(-45 50,50)">
        <path transform="translate(-20,0)" d="
           M50,50
           l0,-8
           l15,0
           l0,-4
           l-15,0
           l0,-8
           l0,-5
           l-4,0
           l0,5
           A20,20 0 0,0 30,48
           l-35,0
           l0,4
           l35,0
           A20,20 0 0,0 46,70
           l0,5
           l4,0
           l0,-5
           l0,-8
           l15,0
           l0,-4
           l-15,0
           Z
           "/>
      <path transform="translate(20, 0)" d="
           M50,50
           l0,-20
           l0,-5
           l4,0
           l0,5
           A20,20 0 0,1 70,48
           l35,0
           l0,4
           l-35,0
           A20,20 0 0,1 54,70
           l0,5
           l-4,0
           l0,-5
           Z
           "/>
      </g>
    </g>
    <g transform="translate(100,0)" clip-path="url(#stencil)">
      <circle cx="50" cy="50" r="50" stroke="none" fill="green"/>
      <g transform="rotate(-45 50,50)">
        <path d="
           M50,50
           l0,-8
           l15,0
           l0,-4
           l-15,0
           l0,-8
           l0,-5
           l-4,0
           l0,5
           A20,20 0 0,0 30,48
           l-53,0
           l0,4
           l53,0
           A20,20 0 0,0 46,70
           l0,5
           l4,0
           l0,-5
           l0,-8
           l15,0
           l0,-4
           l-15,0
           Z
           "/>
        <path d="
           M50,50
           l0,-20
           l0,-5
           l4,0
           l0,5
           A20,20 0 0,1 70,48
           l53,0
           l0,4
           l-53,0
           A20,20 0 0,1 54,70
           l0,5
           l-4,0
           l0,-5
           Z
           "/>
      </g>
    </g>
  </g>
</svg>
